<svg fill="#000000" xmlns="http://www.w3.org/2000/svg" viewBox="0 0 32 32" width="512px" height="512px"><path d="M 24 4 C 20.698375 4 18 6.6983746 18 10 L 20 10 C 20 7.7796254 21.779625 6 24 6 C 26.220375 6 28 7.7796254 28 10 L 30 10 C 30 6.6983746 27.301625 4 24 4 z M 24 9 A 1 1 0 0 0 23 10 A 1 1 0 0 0 24 11 A 1 1 0 0 0 25 10 A 1 1 0 0 0 24 9 z M 7 11 C 4.2504839 11 2 13.250484 2 16 L 2 26 L 4 26 L 4 16 C 4 14.331516 5.3315161 13 7 13 C 8.6684839 13 10 14.331516 10 16 L 10 26 L 12 26 L 12 16 C 12 14.331516 13.331516 13 15 13 C 16.668484 13 18 14.331516 18 16 L 18 19 L 18 20 C 18 23.301625 20.698375 26 24 26 C 27.301625 26 30 23.301625 30 20 L 30 12 L 28 12 L 28 20 C 28 22.220375 26.220375 24 24 24 C 21.779625 24 20 22.220375 20 20 L 20 17 L 20 16 C 20 13.250484 17.749516 11 15 11 C 13.361498 11 11.913409 11.809358 11 13.037109 C 10.086591 11.809358 8.6385018 11 7 11 z"/></svg>